<mxfile host="app.diagrams.net" modified="2023-02-20T20:03:04.920Z" agent="5.0 (Windows NT 10.0; Win64; x64) AppleWebKit/537.36 (KHTML, like Gecko) Chrome/109.0.0.0 Safari/537.36" etag="_ixbLFIRnfBEhQWQZloV" version="20.8.21" type="github">
  <diagram name="General Flow" id="74b105a0-9070-1c63-61bc-23e55f88626e">
    <mxGraphModel dx="1290" dy="581" grid="1" gridSize="10" guides="1" tooltips="1" connect="1" arrows="1" fold="1" page="1" pageScale="1.5" pageWidth="1169" pageHeight="826" background="none" math="0" shadow="0">
      <root>
        <mxCell id="0" style=";html=1;" />
        <mxCell id="1" style=";html=1;" parent="0" />
        <mxCell id="3lu4u0PhW_Fp66nvzmP7-19" style="edgeStyle=orthogonalEdgeStyle;rounded=0;orthogonalLoop=1;jettySize=auto;html=1;exitX=0;exitY=0;exitDx=160;exitDy=60;exitPerimeter=0;entryX=0;entryY=0.5;entryDx=0;entryDy=0;entryPerimeter=0;fontSize=10;" parent="1" source="3lu4u0PhW_Fp66nvzmP7-20" target="3lu4u0PhW_Fp66nvzmP7-24" edge="1">
          <mxGeometry relative="1" as="geometry" />
        </mxCell>
        <mxCell id="3lu4u0PhW_Fp66nvzmP7-20" value="REGISTRY MODULE" style="shape=cube;whiteSpace=wrap;html=1;boundedLbl=1;backgroundOutline=1;darkOpacity=0.05;darkOpacity2=0.1;" parent="1" vertex="1">
          <mxGeometry x="420" y="290" width="160" height="100" as="geometry" />
        </mxCell>
        <mxCell id="3lu4u0PhW_Fp66nvzmP7-21" style="edgeStyle=orthogonalEdgeStyle;rounded=0;orthogonalLoop=1;jettySize=auto;html=1;exitX=0.9;exitY=0.5;exitDx=0;exitDy=0;exitPerimeter=0;entryX=0;entryY=0;entryDx=0;entryDy=60;entryPerimeter=0;fontSize=10;" parent="1" source="3lu4u0PhW_Fp66nvzmP7-22" target="3lu4u0PhW_Fp66nvzmP7-20" edge="1">
          <mxGeometry relative="1" as="geometry" />
        </mxCell>
        <mxCell id="3lu4u0PhW_Fp66nvzmP7-22" value="&lt;font style=&quot;font-size: 10px;&quot;&gt;&lt;b&gt;system manager&lt;/b&gt;&lt;/font&gt;" style="shape=actor;whiteSpace=wrap;html=1;align=center;" parent="1" vertex="1">
          <mxGeometry x="220" y="310" width="60" height="80" as="geometry" />
        </mxCell>
        <mxCell id="3lu4u0PhW_Fp66nvzmP7-23" value="Database" style="swimlane;whiteSpace=wrap;html=1;fontSize=10;" parent="1" vertex="1">
          <mxGeometry x="690" y="260" width="330" height="370" as="geometry" />
        </mxCell>
        <mxCell id="3lu4u0PhW_Fp66nvzmP7-44" style="edgeStyle=elbowEdgeStyle;rounded=0;orthogonalLoop=1;jettySize=auto;html=1;entryX=0.1;entryY=0.5;entryDx=0;entryDy=0;entryPerimeter=0;fontSize=10;elbow=vertical;" parent="3lu4u0PhW_Fp66nvzmP7-23" source="3lu4u0PhW_Fp66nvzmP7-24" target="3lu4u0PhW_Fp66nvzmP7-43" edge="1">
          <mxGeometry relative="1" as="geometry" />
        </mxCell>
        <mxCell id="3lu4u0PhW_Fp66nvzmP7-24" value="registry_schema" style="shape=cylinder3;whiteSpace=wrap;html=1;boundedLbl=1;backgroundOutline=1;size=15;fontSize=10;" parent="3lu4u0PhW_Fp66nvzmP7-23" vertex="1">
          <mxGeometry x="60" y="50" width="60" height="80" as="geometry" />
        </mxCell>
        <mxCell id="3lu4u0PhW_Fp66nvzmP7-25" value="tenant_n" style="shape=cylinder3;whiteSpace=wrap;html=1;boundedLbl=1;backgroundOutline=1;size=15;fontSize=10;" parent="3lu4u0PhW_Fp66nvzmP7-23" vertex="1">
          <mxGeometry x="240" y="200" width="60" height="80" as="geometry" />
        </mxCell>
        <mxCell id="3lu4u0PhW_Fp66nvzmP7-26" value="tenant_2" style="shape=cylinder3;whiteSpace=wrap;html=1;boundedLbl=1;backgroundOutline=1;size=15;fontSize=10;" parent="3lu4u0PhW_Fp66nvzmP7-23" vertex="1">
          <mxGeometry x="157" y="200" width="60" height="80" as="geometry" />
        </mxCell>
        <mxCell id="3lu4u0PhW_Fp66nvzmP7-27" value="tenant_1" style="shape=cylinder3;whiteSpace=wrap;html=1;boundedLbl=1;backgroundOutline=1;size=15;fontSize=10;" parent="3lu4u0PhW_Fp66nvzmP7-23" vertex="1">
          <mxGeometry x="80" y="200" width="60" height="80" as="geometry" />
        </mxCell>
        <mxCell id="3lu4u0PhW_Fp66nvzmP7-43" value="" style="shape=curlyBracket;whiteSpace=wrap;html=1;rounded=1;labelPosition=left;verticalLabelPosition=middle;align=right;verticalAlign=middle;fontSize=10;direction=south;" parent="3lu4u0PhW_Fp66nvzmP7-23" vertex="1">
          <mxGeometry x="80" y="160" width="220" height="20" as="geometry" />
        </mxCell>
        <mxCell id="3lu4u0PhW_Fp66nvzmP7-30" value="TENANT MODULE" style="shape=cube;whiteSpace=wrap;html=1;boundedLbl=1;backgroundOutline=1;darkOpacity=0.05;darkOpacity2=0.1;" parent="1" vertex="1">
          <mxGeometry x="420" y="530" width="160" height="100" as="geometry" />
        </mxCell>
        <mxCell id="3lu4u0PhW_Fp66nvzmP7-31" style="rounded=0;orthogonalLoop=1;jettySize=auto;html=1;exitX=0.9;exitY=0.5;exitDx=0;exitDy=0;exitPerimeter=0;entryX=0;entryY=0;entryDx=0;entryDy=40;entryPerimeter=0;fontSize=10;edgeStyle=orthogonalEdgeStyle;" parent="1" source="3lu4u0PhW_Fp66nvzmP7-32" target="3lu4u0PhW_Fp66nvzmP7-30" edge="1">
          <mxGeometry relative="1" as="geometry" />
        </mxCell>
        <mxCell id="3lu4u0PhW_Fp66nvzmP7-32" value="&lt;font style=&quot;font-size: 10px;&quot;&gt;&lt;b&gt;tenant_1&lt;/b&gt;&lt;/font&gt;" style="shape=actor;whiteSpace=wrap;html=1;align=center;" parent="1" vertex="1">
          <mxGeometry x="220" y="420" width="60" height="80" as="geometry" />
        </mxCell>
        <mxCell id="3lu4u0PhW_Fp66nvzmP7-33" style="rounded=0;orthogonalLoop=1;jettySize=auto;html=1;exitX=1;exitY=0.75;exitDx=0;exitDy=0;fontSize=10;entryX=0;entryY=0;entryDx=0;entryDy=40;entryPerimeter=0;edgeStyle=orthogonalEdgeStyle;" parent="1" source="3lu4u0PhW_Fp66nvzmP7-34" target="3lu4u0PhW_Fp66nvzmP7-30" edge="1">
          <mxGeometry relative="1" as="geometry">
            <mxPoint x="390" y="580" as="targetPoint" />
          </mxGeometry>
        </mxCell>
        <mxCell id="3lu4u0PhW_Fp66nvzmP7-34" value="&lt;font style=&quot;font-size: 10px;&quot;&gt;&lt;b&gt;tenant_2&lt;/b&gt;&lt;/font&gt;" style="shape=actor;whiteSpace=wrap;html=1;align=center;" parent="1" vertex="1">
          <mxGeometry x="220" y="510" width="60" height="80" as="geometry" />
        </mxCell>
        <mxCell id="3lu4u0PhW_Fp66nvzmP7-35" style="rounded=0;orthogonalLoop=1;jettySize=auto;html=1;exitX=1;exitY=0.75;exitDx=0;exitDy=0;entryX=0;entryY=0;entryDx=0;entryDy=40;entryPerimeter=0;fontSize=10;edgeStyle=orthogonalEdgeStyle;" parent="1" source="3lu4u0PhW_Fp66nvzmP7-36" target="3lu4u0PhW_Fp66nvzmP7-30" edge="1">
          <mxGeometry relative="1" as="geometry" />
        </mxCell>
        <mxCell id="3lu4u0PhW_Fp66nvzmP7-36" value="&lt;font style=&quot;font-size: 10px;&quot;&gt;&lt;b&gt;tenant_n&lt;/b&gt;&lt;/font&gt;" style="shape=actor;whiteSpace=wrap;html=1;align=center;" parent="1" vertex="1">
          <mxGeometry x="220" y="610" width="60" height="80" as="geometry" />
        </mxCell>
        <mxCell id="3lu4u0PhW_Fp66nvzmP7-38" style="edgeStyle=orthogonalEdgeStyle;rounded=0;orthogonalLoop=1;jettySize=auto;html=1;entryX=0;entryY=0;entryDx=160;entryDy=60;entryPerimeter=0;fontSize=10;" parent="1" source="3lu4u0PhW_Fp66nvzmP7-27" target="3lu4u0PhW_Fp66nvzmP7-30" edge="1">
          <mxGeometry relative="1" as="geometry">
            <Array as="points">
              <mxPoint x="800" y="590" />
            </Array>
          </mxGeometry>
        </mxCell>
        <mxCell id="3lu4u0PhW_Fp66nvzmP7-40" style="edgeStyle=orthogonalEdgeStyle;rounded=0;orthogonalLoop=1;jettySize=auto;html=1;entryX=0;entryY=0;entryDx=160;entryDy=60;entryPerimeter=0;fontSize=10;" parent="1" source="3lu4u0PhW_Fp66nvzmP7-25" target="3lu4u0PhW_Fp66nvzmP7-30" edge="1">
          <mxGeometry relative="1" as="geometry">
            <Array as="points">
              <mxPoint x="960" y="590" />
            </Array>
          </mxGeometry>
        </mxCell>
        <mxCell id="3lu4u0PhW_Fp66nvzmP7-42" style="edgeStyle=orthogonalEdgeStyle;rounded=0;orthogonalLoop=1;jettySize=auto;html=1;fontSize=10;entryX=0;entryY=0;entryDx=160;entryDy=60;entryPerimeter=0;" parent="1" source="3lu4u0PhW_Fp66nvzmP7-26" target="3lu4u0PhW_Fp66nvzmP7-30" edge="1">
          <mxGeometry relative="1" as="geometry">
            <mxPoint x="850" y="590" as="targetPoint" />
            <Array as="points">
              <mxPoint x="877" y="590" />
            </Array>
          </mxGeometry>
        </mxCell>
      </root>
    </mxGraphModel>
  </diagram>
</mxfile>
